<svg width="64" height="64" viewBox="0 0 24 24" fill="none" xmlns="http://www.w3.org/2000/svg">
<g clip-path="url(#clip0_4087_53314)">
<path fill-rule="evenodd" clip-rule="evenodd" d="M12.0001 7.89188C9.73118 7.89188 7.89193 9.73113 7.89193 12C7.89193 14.2688 9.73118 16.1081 12.0001 16.1081C14.2689 16.1081 16.1081 14.2688 16.1081 12C16.1081 9.73113 14.2689 7.89188 12.0001 7.89188ZM12.0001 14.6666C10.5273 14.6666 9.33336 13.4727 9.33336 12C9.33336 10.5272 10.5273 9.33331 12.0001 9.33331C13.4728 9.33331 14.6667 10.5272 14.6667 12C14.6667 13.4727 13.4728 14.6666 12.0001 14.6666Z" fill="white"/>
<path d="M16.2704 8.68956C16.8006 8.68956 17.2304 8.25978 17.2304 7.72956C17.2304 7.19937 16.8006 6.76959 16.2704 6.76959C15.7402 6.76959 15.3104 7.19937 15.3104 7.72956C15.3104 8.25978 15.7402 8.68956 16.2704 8.68956Z" fill="white"/>
<path fill-rule="evenodd" clip-rule="evenodd" d="M12 4C9.82731 4 9.55487 4.00922 8.70159 4.04816C7.85009 4.087 7.26853 4.22222 6.75966 4.42C6.23359 4.62444 5.78744 4.898 5.34272 5.34275C4.89797 5.78747 4.62441 6.23362 4.41997 6.75969C4.22219 7.26853 4.08697 7.85009 4.04812 8.70159C4.00919 9.55487 4 9.82731 4 12C4 14.1726 4.00919 14.4451 4.04812 15.2983C4.08697 16.1498 4.22219 16.7314 4.41997 17.2402C4.62441 17.7663 4.89797 18.2125 5.34272 18.6572C5.78744 19.102 6.23359 19.3755 6.75966 19.58C7.26853 19.7777 7.85009 19.913 8.70159 19.9518C9.55487 19.9907 9.82731 19.9999 12 19.9999C14.1726 19.9999 14.4451 19.9907 15.2983 19.9518C16.1498 19.913 16.7314 19.7777 17.2402 19.58C17.7663 19.3755 18.2125 19.102 18.6572 18.6572C19.102 18.2125 19.3755 17.7663 19.58 17.2402C19.7777 16.7314 19.913 16.1498 19.9518 15.2983C19.9907 14.4451 19.9999 14.1726 19.9999 12C19.9999 9.82731 19.9907 9.55487 19.9518 8.70159C19.913 7.85009 19.7777 7.26853 19.58 6.75969C19.3755 6.23362 19.102 5.78747 18.6572 5.34275C18.2125 4.898 17.7663 4.62444 17.2402 4.42C16.7314 4.22222 16.1498 4.087 15.2983 4.04816C14.4451 4.00922 14.1726 4 12 4ZM12 5.44147C14.1361 5.44147 14.3891 5.44959 15.2327 5.48809C16.0126 5.52369 16.4362 5.654 16.7181 5.76353C17.0915 5.90866 17.358 6.08203 17.638 6.36197C17.9179 6.64191 18.0913 6.90844 18.2364 7.28181C18.346 7.56372 18.4763 7.98731 18.5119 8.76728C18.5503 9.61087 18.5585 9.86391 18.5585 12C18.5585 14.1361 18.5503 14.3891 18.5119 15.2327C18.4763 16.0126 18.346 16.4362 18.2364 16.7181C18.0913 17.0915 17.9179 17.358 17.638 17.638C17.358 17.9179 17.0915 18.0913 16.7181 18.2364C16.4362 18.346 16.0126 18.4763 15.2327 18.5118C14.3892 18.5503 14.1362 18.5585 12 18.5585C9.86372 18.5585 9.61078 18.5503 8.76728 18.5118C7.98731 18.4763 7.56372 18.346 7.28181 18.2364C6.90841 18.0913 6.64191 17.9179 6.36194 17.638C6.082 17.358 5.90862 17.0915 5.76353 16.7181C5.65397 16.4362 5.52366 16.0126 5.48806 15.2327C5.44956 14.3891 5.44144 14.1361 5.44144 12C5.44144 9.86391 5.44956 9.61087 5.48806 8.76728C5.52366 7.98731 5.65397 7.56372 5.76353 7.28181C5.90862 6.90844 6.082 6.64191 6.36194 6.36197C6.64191 6.08203 6.90841 5.90866 7.28181 5.76353C7.56372 5.654 7.98731 5.52369 8.76728 5.48809C9.61087 5.44959 9.86391 5.44147 12 5.44147Z" fill="white"/>
</g>
<defs>
<clipPath id="clip0_4087_53314">
<rect width="16" height="16" fill="white" transform="translate(4 4)"/>
</clipPath>
</defs>
</svg>
