<?xml version="1.0" encoding="utf-8"?><!-- Uploaded to: SVG Repo, www.svgrepo.com, Generator: SVG Repo Mixer Tools -->
<svg xmlns="http://www.w3.org/2000/svg" width="64" height="64" viewBox="0 0 40 34" fill="none" style="&#10;">
  <path d="M1.44007 16.2119L10.2838 19.5041L13.7007 30.3781C13.9017 31.0764 14.8061 31.3757 15.3086 30.8769L20.233 26.8864C20.7354 26.4874 21.4389 26.4874 22.0419 26.8864L30.8856 33.2711C31.4886 33.6702 32.3931 33.3709 32.4936 32.6726L39.0259 1.64677C39.2269 0.848678 38.4229 0.150347 37.6189 0.449632L1.44007 14.3165C0.535601 14.6158 0.535601 15.9127 1.44007 16.2119ZM13.0977 17.8081L30.3831 7.23341C30.6846 7.03389 30.9861 7.43293 30.7851 7.73222L16.5146 20.9007C16.0121 21.3995 15.7106 21.9981 15.6101 22.6964L15.1076 26.2878C15.0071 26.7867 14.4041 26.7867 14.2031 26.3876L12.2937 19.9031C12.0927 19.0053 12.3942 18.2072 13.0977 17.8081Z" fill="white"/>
</svg>