<svg width="64" height="64" viewBox="0 0 15 16" fill="none" xmlns="http://www.w3.org/2000/svg">
<path d="M12.8901 2.52864C12.547 2.21828 11.1743 1.19593 8.08583 1.17768C8.08583 1.17768 4.45552 0.958602 2.68552 2.60166C1.69215 3.60575 1.34899 5.048 1.31286 6.85536C1.27674 8.66273 1.22256 12.0401 4.45553 12.9712V14.3769C4.45553 14.3769 4.43746 14.9429 4.79869 15.0524C5.25022 15.1985 5.50307 14.7603 5.93654 14.3039C6.17134 14.0483 6.49644 13.6832 6.73124 13.3911C8.93471 13.5736 10.6325 13.1538 10.8311 13.0807C11.2827 12.9347 13.7932 12.6061 14.2086 9.22867C14.6421 5.72348 14.028 3.51447 12.8901 2.52864ZM13.2694 8.95483C12.9262 11.7845 10.8853 11.9671 10.506 12.0766C10.3435 12.1314 8.86247 12.4965 6.9841 12.387C6.9841 12.387 5.59338 14.0848 5.14185 14.5412C5.06961 14.6143 4.99736 14.6325 4.94318 14.6325C4.87093 14.6143 4.85287 14.523 4.85287 14.3952C4.85287 14.2126 4.87093 12.0584 4.87093 12.0584C2.14368 11.2916 2.30623 8.40714 2.3243 6.89187C2.36042 5.37661 2.63134 4.15344 3.46216 3.31365C4.96124 1.94444 8.04971 2.14526 8.04971 2.14526C10.6505 2.16351 11.8968 2.94853 12.1857 3.22237C13.1249 4.06216 13.6126 6.05209 13.2694 8.95483Z" fill="white"/>
<path d="M10.9751 7.43808C10.9751 6.3662 10.6458 5.54096 10.0367 4.94242C9.42232 4.33869 8.65547 4.02662 7.72413 4.02662C7.62408 4.02662 7.54297 3.94371 7.54297 3.84144C7.54297 3.73916 7.62408 3.65625 7.72413 3.65625C8.74336 3.65625 9.60196 4.00139 10.288 4.67549C10.9794 5.35494 11.3374 6.28262 11.3374 7.43808C11.3374 7.54022 11.2561 7.62307 11.1562 7.62326C11.0562 7.62326 10.9751 7.54034 10.9751 7.43808ZM8.08149 4.55107C8.80269 4.60862 9.39104 4.86083 9.82586 5.34028V5.341C10.2395 5.79894 10.4531 6.39469 10.4337 7.07856C10.4307 7.18063 10.3475 7.26091 10.2476 7.25796C10.1477 7.25498 10.0693 7.16985 10.0721 7.06771C10.0868 6.54779 9.94764 6.09993 9.6815 5.74031L9.55978 5.59201C9.1999 5.19532 8.70453 4.97269 8.05319 4.92072C7.95356 4.9127 7.87922 4.82363 7.88689 4.72179C7.89467 4.61984 7.98176 4.54313 8.08149 4.55107ZM8.31148 5.50014C8.67544 5.52004 8.97745 5.63164 9.19251 5.85749C9.40674 6.08256 9.51055 6.39648 9.53006 6.77112C9.53521 6.87312 9.45862 6.96028 9.35881 6.96571C9.25902 6.97106 9.17385 6.89265 9.16845 6.79065C9.15184 6.47166 9.06614 6.2558 8.9328 6.11574C8.80023 5.97652 8.5965 5.88719 8.29237 5.87052C8.19247 5.86506 8.11578 5.77733 8.12112 5.6752C8.12654 5.57315 8.21163 5.49469 8.31148 5.50014Z" fill="white"/>
<path d="M8.33916 9.13925C8.33916 9.13925 8.59201 9.15751 8.71844 8.9932L8.9713 8.66459C9.09773 8.50028 9.38671 8.39075 9.69375 8.55505C9.8563 8.64633 10.1453 8.82889 10.3259 8.97494C10.5246 9.12099 10.9219 9.44961 10.9219 9.44961C11.1206 9.61391 11.1567 9.85124 11.0303 10.1068C10.9039 10.3442 10.7232 10.5632 10.4884 10.7641C10.3078 10.9284 10.1272 11.0014 9.94661 11.0379H9.87436C9.80212 11.0379 9.71181 11.0196 9.63956 11.0014C9.36864 10.9284 8.91711 10.7275 8.14048 10.3077C7.65283 10.0338 7.23742 9.74171 6.89426 9.46786C6.71364 9.32181 6.51497 9.15751 6.33436 8.95669L6.26211 8.88366C6.06344 8.68284 5.90088 8.50029 5.75639 8.31772C5.48547 7.97086 5.19649 7.55096 4.92557 7.05804C4.51017 6.29128 4.31149 5.83488 4.23925 5.54278C4.22119 5.46975 4.20312 5.39673 4.20312 5.30545V5.23242C4.22119 5.04986 4.31149 4.86729 4.47404 4.68473C4.67272 4.46566 4.88945 4.2831 5.12425 4.13705C5.37711 4.00925 5.6119 4.04577 5.77446 4.24658C5.77446 4.24658 6.09956 4.64822 6.24405 4.84904C6.37048 5.0316 6.55109 5.3237 6.65946 5.48801C6.82201 5.78011 6.71364 6.09047 6.56915 6.21826L6.24405 6.47384C6.0815 6.60164 6.09956 6.85723 6.09956 6.85723C6.09956 6.85723 6.55109 8.66459 8.33916 9.13925Z" fill="white"/>
</svg>
