<svg width="64" height="64" viewBox="0 0 16 16" fill="none" xmlns="http://www.w3.org/2000/svg">
<path d="M2 14.4987L2.89461 11.246C2.34257 10.2939 2.0525 9.21459 2.05303 8.10784C2.05462 4.64773 4.88375 1.83203 8.35985 1.83203C10.0467 1.83256 11.6302 2.48648 12.8212 3.67292C14.0118 4.85936 14.6672 6.43637 14.6667 8.11364C14.6651 11.5743 11.8359 14.39 8.35985 14.39C7.30456 14.3894 6.26465 14.1261 5.34352 13.6258L2 14.4987ZM5.49837 12.4894C6.38714 13.0146 7.23562 13.3291 8.35773 13.3297C11.2468 13.3297 13.6002 10.9895 13.6018 8.11259C13.6029 5.22986 11.2606 2.89286 8.36197 2.89181C5.47079 2.89181 3.11893 5.23198 3.11787 8.10837C3.11734 9.28267 3.46309 10.1619 4.04376 11.0819L3.514 13.0072L5.49837 12.4894ZM11.5369 9.60567C11.4976 9.54023 11.3926 9.50117 11.2346 9.42253C11.0771 9.34389 10.3023 8.96442 10.1576 8.91217C10.0133 8.85992 9.90831 8.83353 9.80279 8.99081C9.69779 9.14756 9.39552 9.50117 9.30378 9.60567C9.21203 9.71017 9.11976 9.72336 8.96227 9.64473C8.80477 9.56609 8.29674 9.40089 7.69486 8.86625C7.2266 8.45036 6.91002 7.93684 6.81828 7.77956C6.72653 7.62281 6.80873 7.53784 6.88721 7.45973C6.95827 7.38953 7.04471 7.27659 7.12373 7.18475C7.2038 7.09398 7.22979 7.02853 7.28282 6.9235C7.33531 6.819 7.30933 6.72717 7.26956 6.64853C7.22979 6.57042 6.91479 5.79828 6.78381 5.48425C6.65547 5.17867 6.52555 5.21984 6.42904 5.21509L6.12677 5.20981C6.02177 5.20981 5.85101 5.24886 5.70677 5.40614C5.56253 5.56342 5.15527 5.94236 5.15527 6.7145C5.15527 7.48664 5.72003 8.23239 5.79851 8.33689C5.87753 8.44139 6.90949 10.0258 8.4903 10.705C8.86628 10.8665 9.16007 10.9631 9.38862 11.0354C9.76619 11.1547 10.1098 11.1378 10.3813 11.0977C10.6841 11.0528 11.3136 10.7182 11.4451 10.3519C11.5766 9.98514 11.5766 9.67111 11.5369 9.60567Z" fill="white"/>
</svg>
